# xmcd
#
# Track frame offsets:
#        150
#        13376
#        26713
#        38942
#        50028
#        62136
#        75230
#        88822
#        102341
#        115854
#        130508
#        142778
#        155923
#        169318
#        183547
#        196940
#        211282
#
# Disc length: 2965 seconds
#
# Revision: 0
# Processed by: cddbd v1.5.2PL0 Copyright (c) Steve Scherf et al.
# Submitted via: CDGFix 3.8d
#
DISCID=ee0b9311
DTITLE=Various Artist - CB5082D01
DYEAR=1900
DGENRE=Karaoke
TTITLE0=Roy Acuff - Wabash Cannonball
TTITLE1=Al Dexter and His Troopers - Rosalita
TTITLE2=Eddy Arnold - It's A Sin
TTITLE3=Jimmie Davis - There's A New Moon Over My Shoulder
TTITLE4=George Morgan - Candy Kisses
TTITLE5=Al Dexter and His Troopers - Too Late To Worry, Too Blue To Cry
TTITLE6=Jack Guthrie - Oklahoma Hills
TTITLE7=Al Dexter and His Troopers - Pistol Packin' Mama
TTITLE8=Gene Autry - At Mail Call Today
TTITLE9=Ernest Tubb - It's Been So Long Darling
TTITLE10=The King Cole Trio - Straighten Up And Fly Right
TTITLE11=Eddy Arnold - Texarkana Baby
TTITLE12=Gene Autry - Have I Told You Lately That I Love You
TTITLE13=Red Foley - Smoke On The Water
TTITLE14=Tex Ritter and His Texans - You Two-Timed Me One Time Too Often
TTITLE15=Spade Cooley - Shame On You
TTITLE16=Al Dexter and His Troopers - I'm Losing My Mind Over You
EXTD=
EXTT0=
EXTT1=
EXTT2=
EXTT3=
EXTT4=
EXTT5=
EXTT6=
EXTT7=
EXTT8=
EXTT9=
EXTT10=
EXTT11=
EXTT12=
EXTT13=
EXTT14=
EXTT15=
EXTT16=
PLAYORDER=
